<svg id="svg" xmlns="http://www.w3.org/2000/svg" xmlns:xlink="http://www.w3.org/1999/xlink" width="400" height="400" viewBox="0, 0, 400,400"><g id="svgg"><path id="path0" d="M360.667 127.910 C 355.430 128.771,347.392 131.389,336.583 135.756 C 310.018 146.489,288.190 158.941,273.255 171.882 L 271.426 173.467 269.050 171.162 C 249.780 152.476,219.859 140.407,184.167 136.923 C 147.463 133.340,114.291 138.703,83.167 153.254 C 54.107 166.839,29.732 189.063,30.395 201.370 C 31.197 216.241,47.022 235.193,70.167 248.999 C 126.687 282.714,213.870 279.553,262.667 242.020 C 269.700 236.610,276.623 229.259,278.342 225.373 C 278.660 224.656,278.316 224.512,282.967 227.307 C 293.717 233.767,304.203 239.452,319.000 246.844 C 325.582 250.132,329.054 251.805,335.917 254.995 C 352.731 262.812,360.742 265.076,365.397 263.328 C 370.707 261.333,369.352 254.850,361.008 242.333 C 354.624 232.758,346.079 221.479,332.661 204.917 C 329.361 200.843,327.954 198.453,327.454 196.072 C 327.044 194.115,328.536 191.565,333.795 185.233 C 335.642 183.010,343.588 173.339,344.338 172.402 C 344.565 172.119,345.615 170.806,346.672 169.485 C 359.117 153.931,367.490 140.999,369.093 134.857 C 370.562 129.228,367.585 126.774,360.667 127.910 M82.298 181.006 C 88.845 181.707,92.722 184.990,90.852 188.250 C 89.260 191.025,84.909 193.764,81.167 194.347 C 75.570 195.218,68.184 191.803,66.897 187.749 C 65.570 183.571,73.562 180.072,82.298 181.006 " stroke="none" fill="#283593" fill-rule="evenodd"></path><path id="path1" d="M0.000 200.000 L 0.000 400.000 200.000 400.000 L 400.000 400.000 400.000 200.000 L 400.000 0.000 200.000 0.000 L 0.000 0.000 0.000 200.000 M366.885 128.163 C 372.306 130.228,369.051 139.306,356.889 156.041 C 353.470 160.745,349.781 165.600,346.672 169.485 C 345.615 170.806,344.565 172.119,344.338 172.402 C 343.588 173.339,335.642 183.010,333.795 185.233 C 328.536 191.565,327.044 194.115,327.454 196.072 C 327.954 198.453,329.361 200.843,332.661 204.917 C 346.079 221.479,354.624 232.758,361.008 242.333 C 369.352 254.850,370.707 261.333,365.397 263.328 C 360.742 265.076,352.731 262.812,335.917 254.995 C 316.112 245.789,297.709 236.166,282.967 227.307 C 278.316 224.512,278.660 224.656,278.342 225.373 C 276.623 229.259,269.700 236.610,262.667 242.020 C 213.870 279.553,126.687 282.714,70.167 248.999 C 47.022 235.193,31.197 216.241,30.395 201.370 C 29.732 189.063,54.107 166.839,83.167 153.254 C 114.291 138.703,147.463 133.340,184.167 136.923 C 219.859 140.407,249.780 152.476,269.050 171.162 L 271.426 173.467 273.255 171.882 C 288.190 158.941,310.018 146.489,336.583 135.756 C 353.490 128.925,362.778 126.598,366.885 128.163 M75.917 181.024 C 70.185 181.752,65.986 184.883,66.897 187.749 C 68.184 191.803,75.570 195.218,81.167 194.347 C 84.909 193.764,89.260 191.025,90.852 188.250 C 93.414 183.784,85.257 179.837,75.917 181.024 " stroke="none" fill="#ffffff" fill-rule="evenodd"></path></g></svg>